<?xml version="1.0" encoding="UTF-8" standalone="no"?><svg xmlns="http://www.w3.org/2000/svg" xmlns:xlink="http://www.w3.org/1999/xlink" contentStyleType="text/css" height="170px" preserveAspectRatio="none" style="width:615px;height:170px;" version="1.1" viewBox="0 0 615 170" width="615px" zoomAndPan="magnify"><defs/><g><!--class Employees--><g id="elem_Employees"><rect fill="#F1F1F1" height="48" id="Employees" rx="2.5" ry="2.5" style="stroke:#181818;stroke-width:0.5;" width="105" x="241" y="7"/><ellipse cx="256" cy="23" fill="#ADD1B2" rx="11" ry="11" style="stroke:#181818;stroke-width:1.0;"/><path d="M259.8281,28.6563 Q257.9531,29.3125 256.1406,29.3125 Q253.5469,29.3125 251.9531,27.5313 Q250.375,25.75 250.375,22.8438 Q250.375,20.1563 251.7813,18.3906 Q252.6406,17.3125 253.75,16.8594 Q254.875,16.4063 256.6563,16.4063 Q258.375,16.4063 259.8281,16.7656 L259.8281,18.75 Q257.9531,18.0469 256.7031,18.0469 Q255.0156,18.0469 254.0156,19.375 Q253.0313,20.6875 253.0313,22.9219 Q253.0313,24.9688 254.0625,26.2656 Q255.1094,27.5625 256.75,27.5625 Q258.1406,27.5625 259.8281,26.7813 L259.8281,28.6563 Z " fill="#000000"/><text fill="#000000" font-family="sans-serif" font-size="14" lengthAdjust="spacing" textLength="73" x="270" y="28.1577">Employees</text><line style="stroke:#181818;stroke-width:0.5;" x1="242" x2="345" y1="39" y2="39"/><line style="stroke:#181818;stroke-width:0.5;" x1="242" x2="345" y1="47" y2="47"/></g><!--class Projects--><g id="elem_Projects"><rect fill="#F1F1F1" height="48" id="Projects" rx="2.5" ry="2.5" style="stroke:#181818;stroke-width:0.5;" width="86" x="250.5" y="115"/><ellipse cx="265.5" cy="131" fill="#ADD1B2" rx="11" ry="11" style="stroke:#181818;stroke-width:1.0;"/><path d="M269.3281,136.6563 Q267.4531,137.3125 265.6406,137.3125 Q263.0469,137.3125 261.4531,135.5313 Q259.875,133.75 259.875,130.8438 Q259.875,128.1563 261.2813,126.3906 Q262.1406,125.3125 263.25,124.8594 Q264.375,124.4063 266.1563,124.4063 Q267.875,124.4063 269.3281,124.7656 L269.3281,126.75 Q267.4531,126.0469 266.2031,126.0469 Q264.5156,126.0469 263.5156,127.375 Q262.5313,128.6875 262.5313,130.9219 Q262.5313,132.9688 263.5625,134.2656 Q264.6094,135.5625 266.25,135.5625 Q267.6406,135.5625 269.3281,134.7813 L269.3281,136.6563 Z " fill="#000000"/><text fill="#000000" font-family="sans-serif" font-size="14" lengthAdjust="spacing" textLength="54" x="279.5" y="136.1577">Projects</text><line style="stroke:#181818;stroke-width:0.5;" x1="251.5" x2="335.5" y1="147" y2="147"/><line style="stroke:#181818;stroke-width:0.5;" x1="251.5" x2="335.5" y1="155" y2="155"/></g><!--class Meetings--><g id="elem_Meetings"><rect fill="#F1F1F1" height="48" id="Meetings" rx="2.5" ry="2.5" style="stroke:#181818;stroke-width:0.5;" width="94" x="121.5" y="115"/><ellipse cx="136.5" cy="131" fill="#ADD1B2" rx="11" ry="11" style="stroke:#181818;stroke-width:1.0;"/><path d="M140.3281,136.6563 Q138.4531,137.3125 136.6406,137.3125 Q134.0469,137.3125 132.4531,135.5313 Q130.875,133.75 130.875,130.8438 Q130.875,128.1563 132.2813,126.3906 Q133.1406,125.3125 134.25,124.8594 Q135.375,124.4063 137.1563,124.4063 Q138.875,124.4063 140.3281,124.7656 L140.3281,126.75 Q138.4531,126.0469 137.2031,126.0469 Q135.5156,126.0469 134.5156,127.375 Q133.5313,128.6875 133.5313,130.9219 Q133.5313,132.9688 134.5625,134.2656 Q135.6094,135.5625 137.25,135.5625 Q138.6406,135.5625 140.3281,134.7813 L140.3281,136.6563 Z " fill="#000000"/><text fill="#000000" font-family="sans-serif" font-size="14" lengthAdjust="spacing" textLength="62" x="150.5" y="136.1577">Meetings</text><line style="stroke:#181818;stroke-width:0.5;" x1="122.5" x2="214.5" y1="147" y2="147"/><line style="stroke:#181818;stroke-width:0.5;" x1="122.5" x2="214.5" y1="155" y2="155"/></g><!--class Tickets--><g id="elem_Tickets"><rect fill="#F1F1F1" height="48" id="Tickets" rx="2.5" ry="2.5" style="stroke:#181818;stroke-width:0.5;" width="80" x="450.5" y="7"/><ellipse cx="465.5" cy="23" fill="#ADD1B2" rx="11" ry="11" style="stroke:#181818;stroke-width:1.0;"/><path d="M469.3281,28.6563 Q467.4531,29.3125 465.6406,29.3125 Q463.0469,29.3125 461.4531,27.5313 Q459.875,25.75 459.875,22.8438 Q459.875,20.1563 461.2813,18.3906 Q462.1406,17.3125 463.25,16.8594 Q464.375,16.4063 466.1563,16.4063 Q467.875,16.4063 469.3281,16.7656 L469.3281,18.75 Q467.4531,18.0469 466.2031,18.0469 Q464.5156,18.0469 463.5156,19.375 Q462.5313,20.6875 462.5313,22.9219 Q462.5313,24.9688 463.5625,26.2656 Q464.6094,27.5625 466.25,27.5625 Q467.6406,27.5625 469.3281,26.7813 L469.3281,28.6563 Z " fill="#000000"/><text fill="#000000" font-family="sans-serif" font-size="14" lengthAdjust="spacing" textLength="48" x="479.5" y="28.1577">Tickets</text><line style="stroke:#181818;stroke-width:0.5;" x1="451.5" x2="529.5" y1="39" y2="39"/><line style="stroke:#181818;stroke-width:0.5;" x1="451.5" x2="529.5" y1="47" y2="47"/></g><!--class Timecards--><g id="elem_Timecards"><rect fill="#F1F1F1" height="48" id="Timecards" rx="2.5" ry="2.5" style="stroke:#181818;stroke-width:0.5;" width="103" x="372" y="115"/><ellipse cx="387" cy="131" fill="#ADD1B2" rx="11" ry="11" style="stroke:#181818;stroke-width:1.0;"/><path d="M390.8281,136.6563 Q388.9531,137.3125 387.1406,137.3125 Q384.5469,137.3125 382.9531,135.5313 Q381.375,133.75 381.375,130.8438 Q381.375,128.1563 382.7813,126.3906 Q383.6406,125.3125 384.75,124.8594 Q385.875,124.4063 387.6563,124.4063 Q389.375,124.4063 390.8281,124.7656 L390.8281,126.75 Q388.9531,126.0469 387.7031,126.0469 Q386.0156,126.0469 385.0156,127.375 Q384.0313,128.6875 384.0313,130.9219 Q384.0313,132.9688 385.0625,134.2656 Q386.1094,135.5625 387.75,135.5625 Q389.1406,135.5625 390.8281,134.7813 L390.8281,136.6563 Z " fill="#000000"/><text fill="#000000" font-family="sans-serif" font-size="14" lengthAdjust="spacing" textLength="71" x="401" y="136.1577">Timecards</text><line style="stroke:#181818;stroke-width:0.5;" x1="373" x2="474" y1="147" y2="147"/><line style="stroke:#181818;stroke-width:0.5;" x1="373" x2="474" y1="155" y2="155"/></g><!--class Messages--><g id="elem_Messages"><rect fill="#F1F1F1" height="48" id="Messages" rx="2.5" ry="2.5" style="stroke:#181818;stroke-width:0.5;" width="98" x="510.5" y="115"/><ellipse cx="525.5" cy="131" fill="#ADD1B2" rx="11" ry="11" style="stroke:#181818;stroke-width:1.0;"/><path d="M529.3281,136.6563 Q527.4531,137.3125 525.6406,137.3125 Q523.0469,137.3125 521.4531,135.5313 Q519.875,133.75 519.875,130.8438 Q519.875,128.1563 521.2813,126.3906 Q522.1406,125.3125 523.25,124.8594 Q524.375,124.4063 526.1563,124.4063 Q527.875,124.4063 529.3281,124.7656 L529.3281,126.75 Q527.4531,126.0469 526.2031,126.0469 Q524.5156,126.0469 523.5156,127.375 Q522.5313,128.6875 522.5313,130.9219 Q522.5313,132.9688 523.5625,134.2656 Q524.6094,135.5625 526.25,135.5625 Q527.6406,135.5625 529.3281,134.7813 L529.3281,136.6563 Z " fill="#000000"/><text fill="#000000" font-family="sans-serif" font-size="14" lengthAdjust="spacing" textLength="66" x="539.5" y="136.1577">Messages</text><line style="stroke:#181818;stroke-width:0.5;" x1="511.5" x2="607.5" y1="147" y2="147"/><line style="stroke:#181818;stroke-width:0.5;" x1="511.5" x2="607.5" y1="155" y2="155"/></g><!--class Rooms--><g id="elem_Rooms"><rect fill="#F1F1F1" height="48" id="Rooms" rx="2.5" ry="2.5" style="stroke:#181818;stroke-width:0.5;" width="79" x="7" y="115"/><ellipse cx="22" cy="131" fill="#ADD1B2" rx="11" ry="11" style="stroke:#181818;stroke-width:1.0;"/><path d="M25.8281,136.6563 Q23.9531,137.3125 22.1406,137.3125 Q19.5469,137.3125 17.9531,135.5313 Q16.375,133.75 16.375,130.8438 Q16.375,128.1563 17.7813,126.3906 Q18.6406,125.3125 19.75,124.8594 Q20.875,124.4063 22.6563,124.4063 Q24.375,124.4063 25.8281,124.7656 L25.8281,126.75 Q23.9531,126.0469 22.7031,126.0469 Q21.0156,126.0469 20.0156,127.375 Q19.0313,128.6875 19.0313,130.9219 Q19.0313,132.9688 20.0625,134.2656 Q21.1094,135.5625 22.75,135.5625 Q24.1406,135.5625 25.8281,134.7813 L25.8281,136.6563 Z " fill="#000000"/><text fill="#000000" font-family="sans-serif" font-size="14" lengthAdjust="spacing" textLength="47" x="36" y="136.1577">Rooms</text><line style="stroke:#181818;stroke-width:0.5;" x1="8" x2="85" y1="147" y2="147"/><line style="stroke:#181818;stroke-width:0.5;" x1="8" x2="85" y1="155" y2="155"/></g><!--class Buildings--><g id="elem_Buildings"><rect fill="#F1F1F1" height="48" id="Buildings" rx="2.5" ry="2.5" style="stroke:#181818;stroke-width:0.5;" width="95" x="55" y="7"/><ellipse cx="70" cy="23" fill="#ADD1B2" rx="11" ry="11" style="stroke:#181818;stroke-width:1.0;"/><path d="M73.8281,28.6563 Q71.9531,29.3125 70.1406,29.3125 Q67.5469,29.3125 65.9531,27.5313 Q64.375,25.75 64.375,22.8438 Q64.375,20.1563 65.7813,18.3906 Q66.6406,17.3125 67.75,16.8594 Q68.875,16.4063 70.6563,16.4063 Q72.375,16.4063 73.8281,16.7656 L73.8281,18.75 Q71.9531,18.0469 70.7031,18.0469 Q69.0156,18.0469 68.0156,19.375 Q67.0313,20.6875 67.0313,22.9219 Q67.0313,24.9688 68.0625,26.2656 Q69.1094,27.5625 70.75,27.5625 Q72.1406,27.5625 73.8281,26.7813 L73.8281,28.6563 Z " fill="#000000"/><text fill="#000000" font-family="sans-serif" font-size="14" lengthAdjust="spacing" textLength="63" x="84" y="28.1577">Buildings</text><line style="stroke:#181818;stroke-width:0.5;" x1="56" x2="149" y1="39" y2="39"/><line style="stroke:#181818;stroke-width:0.5;" x1="56" x2="149" y1="47" y2="47"/></g><!--link Employees to Projects--><g id="link_Employees_Projects"><path codeLine="6" d="M293.5,63.26 C293.5,76.89 293.5,92.85 293.5,106.51 " fill="none" id="Employees-Projects" style="stroke:#000000;stroke-width:1.0;"/><line style="stroke:#000000;stroke-width:1.0;" x1="293.5" x2="287.5" y1="63" y2="55"/><line style="stroke:#000000;stroke-width:1.0;" x1="293.5" x2="299.5" y1="63" y2="55"/><line style="stroke:#000000;stroke-width:1.0;" x1="293.5" x2="293.5" y1="63" y2="55"/><ellipse cx="293.5" cy="69" fill="none" rx="4" ry="4" style="stroke:#000000;stroke-width:1.0;"/><line style="stroke:#000000;stroke-width:1.0;" x1="293.5" x2="299.5" y1="106.68" y2="114.68"/><line style="stroke:#000000;stroke-width:1.0;" x1="293.5" x2="287.5" y1="106.68" y2="114.68"/><line style="stroke:#000000;stroke-width:1.0;" x1="293.5" x2="293.5" y1="106.68" y2="114.68"/><ellipse cx="293.5" cy="100.68" fill="none" rx="4" ry="4" style="stroke:#000000;stroke-width:1.0;"/></g><!--link Employees to Meetings--><g id="link_Employees_Meetings"><path codeLine="7" d="M260.07,60.35 C242.23,75.48 220.32,94.06 202.41,109.25 " fill="none" id="Employees-Meetings" style="stroke:#000000;stroke-width:1.0;"/><line style="stroke:#000000;stroke-width:1.0;" x1="260.2848" x2="262.4938" y1="60.1816" y2="50.4286"/><line style="stroke:#000000;stroke-width:1.0;" x1="260.2848" x2="270.2662" y1="60.1816" y2="59.5714"/><line style="stroke:#000000;stroke-width:1.0;" x1="260.2848" x2="266.38" y1="60.1816" y2="55"/><ellipse cx="255.7135" cy="64.0678" fill="none" rx="4" ry="4" style="stroke:#000000;stroke-width:1.0;"/><line style="stroke:#000000;stroke-width:1.0;" x1="202.1022" x2="199.88" y1="109.5067" y2="119.2567"/><line style="stroke:#000000;stroke-width:1.0;" x1="202.1022" x2="192.12" y1="109.5067" y2="110.1033"/><line style="stroke:#000000;stroke-width:1.0;" x1="202.1022" x2="196" y1="109.5067" y2="114.68"/><ellipse cx="206.6789" cy="105.6267" fill="none" rx="4" ry="4" style="stroke:#000000;stroke-width:1.0;"/></g><!--link Employees to Tickets--><g id="link_Employees_Tickets"><path codeLine="8" d="M354.36,31 C383.65,31 412.93,31 442.22,31 " fill="none" id="Employees-Tickets" style="stroke:#000000;stroke-width:1.0;"/><line style="stroke:#000000;stroke-width:1.0;" x1="354.21" x2="346.21" y1="31" y2="37"/><line style="stroke:#000000;stroke-width:1.0;" x1="354.21" x2="346.21" y1="31" y2="25"/><line style="stroke:#000000;stroke-width:1.0;" x1="354.21" x2="346.21" y1="31" y2="31"/><ellipse cx="360.21" cy="31" fill="none" rx="4" ry="4" style="stroke:#000000;stroke-width:1.0;"/><line style="stroke:#000000;stroke-width:1.0;" x1="442.48" x2="450.48" y1="31" y2="25"/><line style="stroke:#000000;stroke-width:1.0;" x1="442.48" x2="450.48" y1="31" y2="37"/><line style="stroke:#000000;stroke-width:1.0;" x1="442.48" x2="450.48" y1="31" y2="31"/><ellipse cx="436.48" cy="31" fill="none" rx="4" ry="4" style="stroke:#000000;stroke-width:1.0;"/></g><!--link Employees to Timecards--><g id="link_Employees_Timecards"><path codeLine="9" d="M328,60.13 C346.59,75.29 369.49,93.96 388.21,109.22 " fill="none" id="Employees-Timecards" style="stroke:#000000;stroke-width:1.0;"/><line style="stroke:#000000;stroke-width:1.0;" x1="322.2814" x2="327.3379" y1="60.6279" y2="54.4286"/><line style="stroke:#000000;stroke-width:1.0;" x1="324.6061" x2="329.6627" y1="62.5241" y2="56.3248"/><line style="stroke:#000000;stroke-width:1.0;" x1="327.9093" x2="321.71" y1="60.0566" y2="55"/><line style="stroke:#000000;stroke-width:1.0;" x1="388.7007" x2="398.6924" y1="109.6234" y2="110.0305"/><line style="stroke:#000000;stroke-width:1.0;" x1="388.7007" x2="391.1076" y1="109.6234" y2="119.3295"/><line style="stroke:#000000;stroke-width:1.0;" x1="388.7007" x2="394.9" y1="109.6234" y2="114.68"/><ellipse cx="384.0512" cy="105.831" fill="none" rx="4" ry="4" style="stroke:#000000;stroke-width:1.0;"/></g><!--link Projects to Timecards--><g id="link_Projects_Timecards"><path codeLine="10" d="M344.93,139 C351.26,139 357.59,139 363.92,139 " fill="none" id="Projects-Timecards" style="stroke:#000000;stroke-width:1.0;"/><line style="stroke:#000000;stroke-width:1.0;" x1="340.66" x2="340.66" y1="143" y2="135"/><line style="stroke:#000000;stroke-width:1.0;" x1="343.66" x2="343.66" y1="143" y2="135"/><line style="stroke:#000000;stroke-width:1.0;" x1="344.66" x2="336.66" y1="139" y2="139"/><line style="stroke:#000000;stroke-width:1.0;" x1="363.94" x2="371.94" y1="139" y2="133"/><line style="stroke:#000000;stroke-width:1.0;" x1="363.94" x2="371.94" y1="139" y2="145"/><line style="stroke:#000000;stroke-width:1.0;" x1="363.94" x2="371.94" y1="139" y2="139"/><ellipse cx="357.94" cy="139" fill="none" rx="4" ry="4" style="stroke:#000000;stroke-width:1.0;"/></g><!--link Tickets to Messages--><g id="link_Tickets_Messages"><path codeLine="11" d="M509.97,61.91 C519.32,76.28 530.51,93.46 539.88,107.86 " fill="none" id="Tickets-Messages" style="stroke:#000000;stroke-width:1.0;"/><line style="stroke:#000000;stroke-width:1.0;" x1="504.2974" x2="511.004" y1="60.534" y2="56.1726"/><line style="stroke:#000000;stroke-width:1.0;" x1="505.933" x2="512.6395" y1="63.049" y2="58.6875"/><line style="stroke:#000000;stroke-width:1.0;" x1="509.8314" x2="505.47" y1="61.7066" y2="55"/><line style="stroke:#000000;stroke-width:1.0;" x1="539.9586" x2="549.3499" y1="107.9734" y2="111.4089"/><line style="stroke:#000000;stroke-width:1.0;" x1="539.9586" x2="539.2901" y1="107.9734" y2="117.9511"/><line style="stroke:#000000;stroke-width:1.0;" x1="539.9586" x2="544.32" y1="107.9734" y2="114.68"/><ellipse cx="536.6875" cy="102.9435" fill="none" rx="4" ry="4" style="stroke:#000000;stroke-width:1.0;"/></g><!--link Rooms to Meetings--><g id="link_Rooms_Meetings"><path codeLine="12" d="M94.08,139 C100.5,139 106.92,139 113.35,139 " fill="none" id="Rooms-Meetings" style="stroke:#000000;stroke-width:1.0;"/><line style="stroke:#000000;stroke-width:1.0;" x1="90.05" x2="90.05" y1="143" y2="135"/><line style="stroke:#000000;stroke-width:1.0;" x1="93.05" x2="93.05" y1="143" y2="135"/><line style="stroke:#000000;stroke-width:1.0;" x1="94.05" x2="86.05" y1="139" y2="139"/><line style="stroke:#000000;stroke-width:1.0;" x1="113.48" x2="121.48" y1="139" y2="133"/><line style="stroke:#000000;stroke-width:1.0;" x1="113.48" x2="121.48" y1="139" y2="145"/><line style="stroke:#000000;stroke-width:1.0;" x1="113.48" x2="121.48" y1="139" y2="139"/><ellipse cx="107.48" cy="139" fill="none" rx="4" ry="4" style="stroke:#000000;stroke-width:1.0;"/></g><!--link Buildings to Employees--><g id="link_Buildings_Employees"><path codeLine="13" d="M158.39,31 C183.21,31 208.03,31 232.84,31 " fill="none" id="Buildings-Employees" style="stroke:#000000;stroke-width:1.0;"/><line style="stroke:#000000;stroke-width:1.0;" x1="154.25" x2="154.25" y1="35" y2="27"/><line style="stroke:#000000;stroke-width:1.0;" x1="157.25" x2="157.25" y1="35" y2="27"/><line style="stroke:#000000;stroke-width:1.0;" x1="158.25" x2="150.25" y1="31" y2="31"/><line style="stroke:#000000;stroke-width:1.0;" x1="232.9" x2="240.9" y1="31" y2="25"/><line style="stroke:#000000;stroke-width:1.0;" x1="232.9" x2="240.9" y1="31" y2="37"/><line style="stroke:#000000;stroke-width:1.0;" x1="232.9" x2="240.9" y1="31" y2="31"/><ellipse cx="226.9" cy="31" fill="none" rx="4" ry="4" style="stroke:#000000;stroke-width:1.0;"/></g><!--link Buildings to Rooms--><g id="link_Buildings_Rooms"><path codeLine="14" d="M86.46,62.36 C78.98,76.52 70.09,93.35 62.6,107.53 " fill="none" id="Buildings-Rooms" style="stroke:#000000;stroke-width:1.0;"/><line style="stroke:#000000;stroke-width:1.0;" x1="84.9461" x2="92.0226" y1="56.6726" y2="60.4039"/><line style="stroke:#000000;stroke-width:1.0;" x1="83.5469" x2="90.6234" y1="59.3263" y2="63.0576"/><line style="stroke:#000000;stroke-width:1.0;" x1="86.6187" x2="90.35" y1="62.0766" y2="55"/><line style="stroke:#000000;stroke-width:1.0;" x1="62.5513" x2="64.1274" y1="107.6034" y2="117.4785"/><line style="stroke:#000000;stroke-width:1.0;" x1="62.5513" x2="53.5126" y1="107.6034" y2="111.8815"/><line style="stroke:#000000;stroke-width:1.0;" x1="62.5513" x2="58.82" y1="107.6034" y2="114.68"/><ellipse cx="65.3497" cy="102.296" fill="none" rx="4" ry="4" style="stroke:#000000;stroke-width:1.0;"/></g><!--SRC=[TOvDQm9138Rlyoi27dhI7w7qA1Jn9XxYJfYTpaTaaaLAxNzljhHBTz5RoFlaoIifrYisBB35BeN6G_Kxpjn06rQnYAgw5zZrM4Ei0RGdoB6IW3BS-gXaQS4qBYpo4SDeoym9BgHApNAkuB7POleX6-TUopNp1zdb5wzFgqkszBpcJtXh_4wTodDYJwJMvWbXm35sYMQ6-trcECP27JOlxk_RVs86_BgMXZs9O21n1-Qol9uAReUO_JWjWAdOOs9yyEFz1W00]--></g></svg>